<?xml version="1.0" encoding="UTF-8" standalone="no"?>
<svg
   id="Layer_3"
   data-name="Layer 3"
   viewBox="0 0 83.233169 83.233169"
   version="1.1"
   sodipodi:docname="final color no text.svg"
   inkscape:version="1.4 (e7c3feb1, 2024-10-09)"
   width="83.23317"
   height="83.23317"
   xmlns:inkscape="http://www.inkscape.org/namespaces/inkscape"
   xmlns:sodipodi="http://sodipodi.sourceforge.net/DTD/sodipodi-0.dtd"
   xmlns="http://www.w3.org/2000/svg"
   xmlns:svg="http://www.w3.org/2000/svg">
  <sodipodi:namedview
     id="namedview44"
     pagecolor="#ffffff"
     bordercolor="#000000"
     borderopacity="0.25"
     inkscape:showpageshadow="2"
     inkscape:pageopacity="0.0"
     inkscape:pagecheckerboard="0"
     inkscape:deskcolor="#d1d1d1"
     inkscape:zoom="1.7180651"
     inkscape:cx="23.282005"
     inkscape:cy="61.697313"
     inkscape:window-width="1104"
     inkscape:window-height="687"
     inkscape:window-x="44"
     inkscape:window-y="30"
     inkscape:window-maximized="0"
     inkscape:current-layer="Layer_3" />
  <defs
     id="defs1">
    <style
       id="style1">
      .cls-1 {
        fill: #4d4d4d;
      }

      .cls-2 {
        fill: #333;
      }

      .cls-3 {
        fill: #e6e6e6;
      }

      .cls-4 {
        fill: #c30631;
      }

      .cls-5 {
        fill: #666;
      }

      .cls-6 {
        fill: #f2f2f2;
      }
    </style>
  </defs>
  <g
     id="g44"
     transform="translate(-9.4734157,-63.313416)">
    <g
       id="g37">
      <g
         id="g17">
        <polygon
           class="cls-5"
           points="88.82,120.79 61.95,110.13 14.15,126.05 39.82,138.8 "
           id="polygon16" />
        <path
           class="cls-2"
           d="m 39.82,138.93 c 0,0 -0.04,0 -0.06,-0.01 L 14.09,126.17 c 0,0 -0.07,-0.07 -0.07,-0.12 0,-0.05 0.04,-0.09 0.08,-0.11 l 47.8,-15.92 c 0,0 0.06,0 0.09,0 l 26.87,10.66 c 0,0 0.08,0.07 0.08,0.12 0,0.05 -0.03,0.1 -0.08,0.12 l -49,18.01 c 0,0 -0.03,0 -0.04,0 z m -25.34,-12.86 25.35,12.6 48.64,-17.88 -26.52,-10.52 -47.47,15.81 z"
           id="path17" />
      </g>
      <g
         id="g36">
        <g
           id="g18">
          <polygon
             class="cls-1"
             points="25.11,127.82 20.45,125.62 27.47,123.28 32.14,125.44 "
             id="polygon17" />
          <path
             class="cls-2"
             d="m 25.1,127.96 -0.05,-0.02 -4.93,-2.34 7.36,-2.45 0.04,0.02 4.95,2.3 -7.38,2.5 z m -4.31,-2.32 4.33,2.05 6.69,-2.26 -4.34,-2.01 -6.67,2.22 z"
             id="path18" />
        </g>
        <g
           id="g19">
          <polygon
             class="cls-1"
             points="32.14,125.44 27.47,123.28 34.36,120.98 39.04,123.11 "
             id="polygon18" />
          <path
             class="cls-2"
             d="m 32.13,125.58 -0.05,-0.02 -4.95,-2.3 7.23,-2.41 0.04,0.02 4.97,2.26 -7.25,2.45 z m -4.32,-2.28 4.34,2.01 6.56,-2.22 -4.35,-1.98 -6.54,2.18 z"
             id="path19" />
        </g>
        <g
           id="g20">
          <polygon
             class="cls-1"
             points="39.04,123.11 34.36,120.98 41.12,118.72 45.82,120.81 "
             id="polygon19" />
          <path
             class="cls-2"
             d="m 39.04,123.24 -0.04,-0.02 -4.97,-2.26 7.11,-2.37 0.04,0.02 4.99,2.22 z M 34.7,121 l 4.35,1.98 6.43,-2.18 -4.36,-1.94 z"
             id="path20" />
        </g>
        <g
           id="g21">
          <polygon
             class="cls-1"
             points="45.82,120.81 41.12,118.72 47.77,116.51 52.48,118.56 "
             id="polygon20" />
          <path
             class="cls-2"
             d="m 45.82,120.95 -0.04,-0.02 -4.99,-2.22 7,-2.33 0.04,0.02 5.01,2.18 -7.01,2.37 z m -4.35,-2.21 4.36,1.94 6.31,-2.13 -4.37,-1.9 -6.29,2.1 z"
             id="path21" />
        </g>
        <g
           id="g22">
          <polygon
             class="cls-1"
             points="52.48,118.56 47.77,116.51 54.3,114.33 59.02,116.35 "
             id="polygon21" />
          <path
             class="cls-2"
             d="m 52.48,118.69 -0.04,-0.02 -5.01,-2.18 6.88,-2.29 5.07,2.16 z m -4.36,-2.17 4.37,1.9 6.19,-2.09 -4.38,-1.87 z"
             id="path22" />
        </g>
        <g
           id="g23">
          <polygon
             class="cls-1"
             points="59.02,116.35 54.3,114.33 60.71,112.19 65.45,114.17 "
             id="polygon22" />
          <path
             class="cls-2"
             d="m 59.02,116.48 -5.07,-2.16 6.77,-2.26 0.04,0.02 5.04,2.11 -6.79,2.29 z m -4.37,-2.13 4.38,1.87 6.07,-2.05 -4.39,-1.83 -6.06,2.02 z"
             id="path23" />
        </g>
        <g
           id="g24">
          <polygon
             class="cls-1"
             points="29.84,130.06 25.11,127.82 32.14,125.44 36.89,127.64 "
             id="polygon23" />
          <path
             class="cls-2"
             d="m 29.83,130.2 -0.05,-0.02 -5.01,-2.38 7.37,-2.49 0.05,0.02 5.03,2.33 z m -4.39,-2.36 4.41,2.09 6.71,-2.3 -4.42,-2.05 -6.69,2.26 z"
             id="path24" />
        </g>
        <g
           id="g25">
          <polygon
             class="cls-1"
             points="36.89,127.64 32.14,125.44 39.04,123.11 43.81,125.27 "
             id="polygon24" />
          <path
             class="cls-2"
             d="m 36.88,127.78 -0.05,-0.02 -5.03,-2.33 7.25,-2.45 0.04,0.02 5.05,2.29 z m -4.41,-2.32 4.42,2.05 6.57,-2.26 -4.43,-2.01 z"
             id="path25" />
        </g>
        <g
           id="g26">
          <polygon
             class="cls-1"
             points="43.81,125.27 39.04,123.11 45.82,120.81 50.6,122.94 "
             id="polygon25" />
          <path
             class="cls-2"
             d="m 43.8,125.4 -5.1,-2.31 7.13,-2.41 0.04,0.02 5.07,2.25 z m -4.42,-2.28 4.43,2.01 6.45,-2.21 -4.44,-1.98 -6.43,2.18 z"
             id="path26" />
        </g>
        <g
           id="g27">
          <polygon
             class="cls-1"
             points="50.6,122.94 45.82,120.81 52.48,118.56 57.27,120.65 "
             id="polygon26" />
          <path
             class="cls-2"
             d="m 50.59,123.07 -0.04,-0.02 -5.07,-2.25 7.01,-2.37 0.04,0.02 5.09,2.21 -7.02,2.41 z m -4.43,-2.24 4.44,1.97 6.32,-2.17 -4.45,-1.94 -6.31,2.13 z"
             id="path27" />
        </g>
        <g
           id="g28">
          <polygon
             class="cls-1"
             points="57.27,120.65 52.48,118.56 59.02,116.35 63.82,118.4 "
             id="polygon27" />
          <path
             class="cls-2"
             d="m 57.27,120.78 -0.04,-0.02 -5.09,-2.21 6.89,-2.33 5.14,2.2 -6.91,2.37 z m -4.44,-2.21 4.45,1.94 6.2,-2.13 -4.46,-1.9 z"
             id="path28" />
        </g>
        <g
           id="g29">
          <polygon
             class="cls-1"
             points="63.82,118.4 59.02,116.35 65.45,114.17 70.26,116.19 "
             id="polygon28" />
          <path
             class="cls-2"
             d="m 63.82,118.53 -0.04,-0.02 -5.1,-2.18 6.78,-2.29 0.04,0.02 5.11,2.14 z m -4.45,-2.17 4.46,1.9 6.08,-2.09 -4.46,-1.87 -6.07,2.05 z"
             id="path29" />
        </g>
        <g
           id="g30">
          <polygon
             class="cls-1"
             points="34.65,132.35 29.84,130.06 36.89,127.64 41.72,129.89 "
             id="polygon29" />
          <path
             class="cls-2"
             d="m 34.65,132.48 -0.05,-0.02 -5.09,-2.41 7.39,-2.54 0.05,0.02 5.11,2.37 -7.4,2.58 z m -4.48,-2.4 4.49,2.13 6.72,-2.34 -4.51,-2.09 -6.71,2.3 z"
             id="path30" />
        </g>
        <g
           id="g31">
          <polygon
             class="cls-1"
             points="41.72,129.89 36.89,127.64 43.81,125.27 48.65,127.47 "
             id="polygon30" />
          <path
             class="cls-2"
             d="m 41.71,130.02 -0.05,-0.02 -5.11,-2.37 7.26,-2.49 5.18,2.35 -7.28,2.54 z m -4.49,-2.36 4.5,2.09 6.59,-2.3 -4.52,-2.05 -6.58,2.26 z"
             id="path31" />
        </g>
        <g
           id="g32">
          <polygon
             class="cls-1"
             points="48.65,127.47 43.81,125.27 50.6,122.94 55.46,125.1 "
             id="polygon31" />
          <path
             class="cls-2"
             d="m 48.65,127.6 -0.05,-0.02 -5.13,-2.33 7.14,-2.45 0.04,0.02 5.15,2.29 z m -4.5,-2.32 4.51,2.05 6.46,-2.25 -4.53,-2.01 -6.45,2.21 z"
             id="path32" />
        </g>
        <g
           id="g33">
          <polygon
             class="cls-1"
             points="55.46,125.1 50.6,122.94 57.27,120.65 62.14,122.77 "
             id="polygon32" />
          <path
             class="cls-2"
             d="m 55.45,125.23 -0.05,-0.02 -5.15,-2.29 7.02,-2.41 0.04,0.02 5.16,2.25 -7.03,2.45 z m -4.51,-2.28 4.52,2.01 6.33,-2.21 -4.53,-1.97 z"
             id="path33" />
        </g>
        <g
           id="g34">
          <polygon
             class="cls-1"
             points="62.14,122.77 57.27,120.65 63.82,118.4 68.71,120.48 "
             id="polygon33" />
          <path
             class="cls-2"
             d="m 62.14,122.9 -5.21,-2.27 6.9,-2.37 0.04,0.02 5.18,2.21 z m -4.52,-2.24 4.53,1.97 6.21,-2.17 -4.54,-1.94 -6.2,2.13 z"
             id="path34" />
        </g>
        <g
           id="g35">
          <polygon
             class="cls-1"
             points="68.71,120.48 63.82,118.4 70.26,116.19 75.15,118.23 "
             id="polygon34" />
          <path
             class="cls-2"
             d="m 68.7,120.61 -0.04,-0.02 -5.18,-2.21 6.79,-2.33 0.04,0.02 5.19,2.17 z m -4.53,-2.21 4.54,1.94 6.09,-2.12 -4.55,-1.9 -6.08,2.09 z"
             id="path35" />
        </g>
      </g>
    </g>
    <g
       id="g43">
      <g
         id="g38">
        <path
           class="cls-5"
           d="m 61.95,71.05 -48.59,13.58 0.79,41.42 47.8,-15.92 z"
           id="path37" />
        <path
           class="cls-2"
           d="m 14.15,126.17 c 0,0 -0.05,0 -0.07,-0.02 -0.03,-0.02 -0.05,-0.06 -0.05,-0.1 L 13.24,84.63 c 0,-0.06 0.04,-0.11 0.09,-0.12 L 61.92,70.93 c 0,0 0.08,0 0.11,0.02 0.03,0.02 0.05,0.06 0.05,0.1 v 39.08 c 0,0.05 -0.03,0.1 -0.09,0.12 l -47.8,15.92 c 0,0 -0.03,0 -0.04,0 z m -0.66,-41.45 0.78,41.15 47.56,-15.84 V 71.21 Z"
           id="path38" />
      </g>
      <g
         id="g40">
        <path
           class="cls-3"
           d="m 58.51,75.38 -40.19,11.42 0.4,34.18 39.79,-13.07 z"
           id="path39" />
        <path
           class="cls-2"
           d="M 18.59,121.15 18.18,86.7 18.27,86.67 58.62,75.21 V 108 l -0.09,0.03 -39.95,13.12 z m -0.15,-34.26 0.4,33.92 39.54,-12.99 V 75.55 Z"
           id="path40" />
      </g>
      <g
         id="g42">
        <path
           class="cls-6"
           d="M 57.91,107.52 C 53.04,104.23 47.49,100.83 41.24,97.56 33.22,93.35 25.64,90.18 18.85,87.75 31.83,84.02 44.81,80.3 57.79,76.57 c 0.04,10.31 0.08,20.63 0.12,30.94 z"
           id="path41" />
        <path
           class="cls-4"
           d="m 47.55,101 c -2.21,-2.61 -5.88,-1.89 -7.32,-3.57 2.63,-0.75 3.45,1.81 6.72,1.08 3.7,-0.83 3.07,-3.82 6.3,-4.54 0,0 -3.26,-2.68 -6.49,-1.96 -3.33,0.75 -4.47,4.36 -6.63,4.86 0.53,-2.7 3.16,-2.33 3.99,-5.61 0.94,-3.72 -1.99,-4.46 -1.17,-7.71 0,0 -3.84,1.78 -4.66,5.03 -0.82,3.25 1.83,5.98 1.3,8.15 0,0 0,0.01 0,0.02 0,0 0,0 -0.02,0 -2.2,-1.62 -0.72,-3.88 -3.29,-6.02 -2.91,-2.42 -4.84,-0.05 -7.39,-2.17 0,0 -0.08,4.27 2.47,6.39 2.62,2.18 6.12,0.83 7.83,2.23 -2.46,1.2 -3.72,-1.18 -6.81,0.12 -3.51,1.46 -2.37,4.29 -5.44,5.57 0,0 3.67,2.07 6.74,0.79 3.17,-1.32 3.68,-5.11 5.73,-5.97 0.02,0 0.03,-0.01 0.05,-0.02 -0.8,2.89 -3.4,11.49 -7.88,14.63 l 2.1,0.53 c 0.47,-0.61 4.09,-5.13 6.15,-15.03 1.85,1.97 0.02,3.96 2.18,6.51 2.45,2.9 4.75,0.9 6.9,3.43 0,0 0.8,-4.2 -1.34,-6.73 z"
           id="path42" />
      </g>
    </g>
  </g>
</svg>
